<svg xmlns="http://www.w3.org/2000/svg" viewBox="0 0 92 100">
  <defs>
    <linearGradient id="body" x1="0" y1="0" x2="88" y2="100">
      <stop offset="0" stop-color="#ff5148"/>
      <stop offset="0.45" stop-color="#e31b1b"/>
      <stop offset="1" stop-color="#9a1010"/>
    </linearGradient>
  </defs>
  <path fill="#2a0404" transform="translate(0 5)" fill-rule="evenodd" d="M4 0 H40 C78 0 92 22 92 50 C92 78 78 100 40 100 H4 Z M30 24 H42 C64 24 70 36 70 50 C70 64 64 76 42 76 H30 Z"/>
  <path fill="url(#body)" fill-rule="evenodd" d="M0 0 H38 C76 0 88 22 88 50 C88 78 76 96 38 96 H0 Z M28 22 H40 C62 22 68 34 68 50 C68 66 62 74 40 74 H28 Z"/>
  <path fill="#ffb0b0" opacity=".35" d="M6 4 H34 V12 H10 Z"/>
  <path fill="#f0c14b" d="M36 36 L48 26 L60 36 Z"/>
  <rect x="39" y="36" width="18" height="28" fill="#9a1010"/>
  <rect x="39" y="36" width="18" height="4" fill="#ff6a6a" opacity=".7"/>
  <rect x="51" y="48" width="3" height="4" fill="#f0c14b"/>
</svg>
